<?xml version="1.0" encoding="utf-8"?>
<!-- Generator: Adobe Illustrator 24.3.0, SVG Export Plug-In . SVG Version: 6.00 Build 0)  -->
<svg version="1.1" id="Layer_1" xmlns="http://www.w3.org/2000/svg" xmlns:xlink="http://www.w3.org/1999/xlink" x="0px" y="0px"
	 viewBox="0 0 282.6 90" style="enable-background:new 0 0 282.6 90;" xml:space="preserve">
<style type="text/css">
	.st0{fill:#FFFFFF;}
	.st1{fill:#0A2240;}
	.st2{fill:#7C9AC0;}
	.st3{fill:#6F7271;}
	.st4{fill:#FFC629;}
</style>
<g id="GRIZ">
	<path class="st0" d="M117.5,37.7v19.2h-4.5V37.7h-6.1v-4h16.7v4H117.5z"/>
	<path class="st0" d="M127.2,56.9V33.6h15.3v4h-10.8v5.5h9.2v4.1h-9.2v5.7h10.8v4.1L127.2,56.9z"/>
	<path class="st0" d="M160.3,56.9l-1.4-4.1h-8.3l-1.4,4.1h-4.7l8.5-23.3h3.6l8.4,23.3H160.3z M154.9,40.5l-2.9,8.5h5.8L154.9,40.5z"
		/>
	<path class="st0" d="M184.4,56.9V43.3l-4.4,8.8h-3.1l-4.5-8.8v13.6h-4.6V33.6h4.5l6.1,12.6l6-12.6h4.5v23.3H184.4z"/>
	<path class="st0" d="M208.4,57.1c-3.5,0-6.2-0.8-8.5-3.1l2.9-2.9c1.5,1.4,3.6,2.1,5.6,2c2.7,0,4.1-1,4.1-2.9c0.1-0.7-0.2-1.5-0.7-2
		c-0.6-0.5-1.3-0.8-2.1-0.8L207,47c-1.7-0.1-3.3-0.8-4.5-1.9c-1.2-1.2-1.8-2.9-1.7-4.6c0-4.2,3.1-7.1,8.1-7.1c3.2,0,5.5,0.8,7.5,2.7
		l-2.9,2.8c-1.3-1.2-3-1.7-4.8-1.6c-2.4,0-3.6,1.3-3.6,2.9c0,0.6,0.2,1.2,0.7,1.7c0.6,0.5,1.4,0.8,2.2,0.9l2.7,0.4
		c1.6,0.1,3.2,0.7,4.4,1.8c1.3,1.3,1.9,3.1,1.8,4.9C217,54.5,213.3,57.1,208.4,57.1z"/>
	<path class="st0" d="M233.8,56.9v-9.8h-7.9v9.8h-4.6V33.6h4.6v9.5h7.9v-9.5h4.5v23.3H233.8z"/>
	<path class="st0" d="M257.8,54.5c-3.5,3.4-9.1,3.4-12.6,0c-2.4-2.3-2.3-5.3-2.3-9.3s-0.1-6.9,2.3-9.3c3.5-3.4,9.1-3.4,12.6,0
		c2.4,2.4,2.3,5.3,2.3,9.3S260.2,52.2,257.8,54.5z M254.4,38.7c-0.7-0.8-1.8-1.3-2.9-1.2c-1.1,0-2.2,0.4-2.9,1.2
		c-0.9,1-1.1,2.1-1.1,6.5s0.2,5.6,1.1,6.5c0.8,0.8,1.8,1.3,2.9,1.2c1.1,0,2.2-0.4,2.9-1.2c0.9-1,1.1-2.1,1.1-6.5
		S255.3,39.7,254.4,38.7z"/>
	<path class="st0" d="M273.8,48.1h-4.5v8.8h-4.5V33.6h9c4.8,0,7.7,3.3,7.7,7.3S278.6,48.1,273.8,48.1z M273.6,37.6h-4.2V44h4.2
		c1.8,0,3.2-1.4,3.2-3.2C276.8,39.1,275.3,37.6,273.6,37.6z"/>
	<circle class="st0" cx="88.9" cy="45.3" r="5.9"/>
	<path class="st1" d="M15,85c0-1-0.8-1.9-1.9-1.9H9.6v6.6h1.5v-2.1h1.4c0.5,0,0.8,0.4,0.8,0.8v1.2h1.5v-1.2c0-0.5-0.2-1-0.5-1.4
		c0.4-0.4,0.6-0.8,0.6-1.3V85z M13.1,84.7c0.2,0,0.3,0.2,0.3,0.3v0.7c0,0.2-0.2,0.4-0.4,0.4c0,0,0,0,0,0h-2v-1.5L13.1,84.7z"/>
	<polygon class="st1" points="49.7,89.7 44.2,89.7 44.2,83.1 45.7,83.1 45.7,88.2 49.7,88.2 	"/>
	<polygon class="st1" points="64.9,84.6 64.9,83.1 59.5,83.1 59.5,89.7 64.9,89.7 64.9,88.2 61,88.2 61,87.1 64.4,87.1 64.4,85.6 
		61,85.6 61,84.6 	"/>
	<polygon class="st1" points="30.3,89.7 24.3,89.7 27.7,84.6 24.7,84.6 24.7,83.1 30.6,83.1 27.2,88.2 30.3,88.2 	"/>
	<polygon class="st1" points="39.8,89.7 33.9,89.7 37.3,84.6 34.2,84.6 34.2,83.1 40.2,83.1 36.8,88.2 39.8,88.2 	"/>
	<rect x="53.5" y="83.1" class="st1" width="1.5" height="6.6"/>
	<rect x="19.1" y="83.1" class="st1" width="1.5" height="6.6"/>
	<rect x="19.1" y="83.1" class="st1" width="1.5" height="6.6"/>
	<path class="st1" d="M42.4,80.7h-2.8V68.6h5.6c1.9,0,3.4,1.5,3.4,3.4l0,0v1.4c0,1.9-1.5,3.4-3.4,3.4h-2.9V80.7z M42.4,74h2.8
		c0.3,0,0.6-0.3,0.6-0.6l0,0V72c0-0.3-0.3-0.6-0.6-0.6l0,0h-2.8V74z"/>
	<path class="st2" d="M41.1,80.7h-0.2V69.9h4.4c1.2,0,2.1,1,2.1,2.1v1.4c0,1.2-1,2.1-2.1,2.1h-4.1V80.7z M41.1,75.3h4.1
		c1,0,1.9-0.9,1.9-1.9V72c0-1-0.8-1.9-1.9-1.9h-4.1V75.3z"/>
	<polygon class="st1" points="23.7,71.4 23.7,68.6 14.5,68.6 14.5,80.7 23.7,80.7 23.7,77.9 17.3,77.9 17.3,76.1 22.7,76.1 
		22.7,73.3 17.3,73.3 17.3,71.4 	"/>
	<polygon class="st2" points="23.7,70.1 23.7,69.9 15.8,69.9 15.8,79.5 23.7,79.5 23.7,79.2 16,79.2 16,74.8 22.7,74.8 22.7,74.6 
		16,74.6 16,70.1 	"/>
	<path class="st1" d="M34.7,68.6h-9.6v12.1h2.8v-9.3h2.3v9.3H33v-9.3h1.7c0.3,0,0.6,0.3,0.6,0.6l0,0v8.7h2.8V72
		C38.1,70.1,36.6,68.6,34.7,68.6"/>
	<path class="st2" d="M34.7,69.9h-8.3v10.8h0.2V70.1h4.9v10.6h0.2V70.1h3c1,0,1.9,0.8,1.9,1.9v8.7h0.2V72
		C36.9,70.8,35.9,69.9,34.7,69.9L34.7,69.9"/>
	<path class="st1" d="M9.6,68.6H0v12.1h2.8v-9.3h2.3v9.3h2.8v-9.3h1.7c0.3,0,0.6,0.3,0.6,0.6l0,0v8.7H13V72
		C13,70.1,11.5,68.6,9.6,68.6"/>
	<path class="st2" d="M9.6,69.9H1.3v10.8h0.2V70.1h4.9v10.6h0.2V70.1h3c1,0,1.9,0.8,1.9,1.9v8.7h0.2V72
		C11.7,70.8,10.8,69.9,9.6,69.9C9.6,69.9,9.6,69.9,9.6,69.9"/>
	<rect x="60.8" y="68.6" class="st1" width="2.8" height="12.1"/>
	<rect x="62.1" y="68.6" class="st2" width="0.2" height="12.1"/>
	<polygon class="st1" points="56.2,68.6 56.2,73.3 52.7,73.3 52.7,68.6 50,68.6 50,80.7 52.7,80.7 52.7,76.1 56.2,76.1 56.2,80.7 
		59,80.7 59,68.6 	"/>
	<polygon class="st2" points="57.5,68.6 57.5,74.6 51.5,74.6 51.5,68.6 51.2,68.6 51.2,80.7 51.5,80.7 51.5,74.8 57.5,74.8 
		57.5,80.7 57.7,80.7 57.7,68.6 	"/>
	<path class="st1" d="M5.4,89.7H1.9c-1,0-1.9-0.8-1.9-1.9V85c0-1,0.8-1.9,1.9-1.9c0,0,0,0,0,0h1.6c1,0,1.9,0.9,1.9,1.9c0,0,0,0,0,0
		v0.3H3.9V85c0-0.2-0.1-0.3-0.3-0.3H1.9c-0.2,0-0.3,0.2-0.3,0.3v2.9c0,0.2,0.2,0.3,0.3,0.3h2v-0.6H3V86h2.4V89.7z"/>
	<path class="st1" d="M5.4,89.7H1.9c-1,0-1.9-0.8-1.9-1.9V85c0-1,0.8-1.9,1.9-1.9c0,0,0,0,0,0h1.6c1,0,1.9,0.8,1.9,1.9c0,0,0,0,0,0
		v0.3H3.9V85c0-0.2-0.2-0.3-0.3-0.3H1.9c-0.2,0-0.3,0.2-0.3,0.3v2.9c0,0.2,0.2,0.3,0.3,0.3h2v-0.6H3V86h2.4V89.7z"/>
	<path class="st1" d="M72.4,89.7h-1.6c-1,0-1.9-0.8-1.9-1.9v-0.2h1.5v0.2c0,0.2,0.2,0.3,0.3,0.3h1.6c0.2,0,0.3-0.2,0.3-0.3v-0.3
		l-2.9-0.8c-0.6-0.2-1-0.7-1-1.4V85c0-1.1,0.9-1.9,1.9-1.9c0,0,0,0,0,0h1.6c1,0,1.9,0.8,1.9,1.9c0,0,0,0,0,0v0.3h-1.5V85
		c0-0.2-0.2-0.3-0.3-0.3h-1.6c-0.2,0-0.4,0.2-0.4,0.4c0,0,0,0,0,0v0.3l2.9,0.8c0.6,0.2,1,0.7,1,1.3v0.4
		C74.3,88.9,73.5,89.7,72.4,89.7"/>
	<path class="st1" d="M71,80.7h-5.8v-3.9H68v1.1h3c0.3,0,0.6-0.3,0.6-0.6v-0.6L67,75.3c-1.1-0.3-1.8-1.3-1.8-2.4V72
		c0-1.9,1.5-3.4,3.4-3.4h5.7v4h-2.7v-1.2h-2.9c-0.3,0-0.6,0.3-0.7,0.6v0.7l4.5,1.4c1.1,0.3,1.8,1.3,1.8,2.5v0.7
		C74.4,79.1,72.9,80.7,71,80.7"/>
	<path class="st2" d="M71,79.4h-4.5v-2.6h0.2v2.3H71c1.1,0,1.9-0.9,1.9-1.9v0v-0.7c0-0.5-0.3-0.9-0.8-1l-4.7-1.4
		c-0.5-0.2-0.9-0.7-0.9-1.2V72c0-1.2,1-2.1,2.1-2.1h4.4v2.7h-0.2v-2.5h-4.2c-1,0-1.9,0.8-1.9,1.9v0.9c0,0.5,0.3,0.9,0.7,1l4.7,1.4
		c0.5,0.2,0.9,0.7,0.9,1.2v0.7C73.1,78.4,72.2,79.4,71,79.4"/>
	<path class="st3" d="M66.6,14.9c0.8-1.4,1.2-3,1.2-4.7c-0.1-3.4-1.8-6.5-4.6-8.4C59-1.2,53.1-0.4,49.8,3.7c-4.3-0.5-8.6,0-12.6,1.6
		c-4-1.6-8.3-2.1-12.6-1.6c-3.2-4.1-9.2-4.9-13.4-1.9c-2.8,1.9-4.6,5-4.6,8.4c0,1.6,0.4,3.2,1.2,4.7c-3.1,4.3-4.9,9.4-5.1,14.8
		c-0.1,4,1.2,7.9,3.7,11l0.8-0.8C10.1,47.1,15,51.1,21,54.6l0.2-1.4c6.4,5.5,9.4,4.2,16,11.6c6.6-7.5,9.7-6.2,16-11.7
		c0.1,0.6,0.2,1.4,0.2,1.4c2.6-1.6,10.1-5.6,13.7-14.8l0.8,0.8c2.5-3.1,3.8-7,3.7-11C71.5,24.3,69.8,19.2,66.6,14.9"/>
	<path class="st1" d="M64.8,15c6.1-9.3-7.7-19-14.4-9.6c-4.5-0.7-9-0.1-13.2,1.6C33.1,5.2,28.5,4.6,24,5.4C17.4-4,3.6,5.7,9.6,15
		c-6.9,9.5-6.2,18.9-3,23.3L8,37c0,0,1.9,9.2,11.9,15.2l0.4-2c6.1,6.6,11.8,6.4,17,12.4c5.3-6,10.9-5.8,17-12.4l0.4,2
		c10-6,11.9-15.2,11.9-15.2l1.3,1.3C71,33.9,71.7,24.6,64.8,15"/>
	<path class="st2" d="M37.3,49.9c0,0-4.8,0.1-5.5,0.5c0,0-0.8,1.4,5.5,1.4c6,0,5.1-1.1,5.2-1.3C40.8,50.1,39,49.8,37.3,49.9"/>
	<path class="st2" d="M53,9.7c0,0,2-5.1,8.3-3.9c0,0-5.8-3.8-9.8,3.1c0,0-5.8-2.7-14.3,1c0,0-8-2.8-14.2-1.2c0,0-3.6-6.2-8.6-3.6
		s-2.4,8.5-1.5,10c0,0-8.3,8.5-5.2,19l1.7-2.1c0,0,2.4,11.4,8.6,15l0.4-2.8c0,0,6.4,7.8,14,11.1c0.7,0.3,4.7,2.3,4.9,3.3v-5.4
		c0,0-5.2,0.4-6.6-2c-0.9-1.7-7-12.4-4-23.7c0,0-2.9-0.4-3.5-5.3c-1.5-0.7-3.2-1-4.9-0.8c3.1-0.9,6.3-0.8,9.3,0.2
		c4.5,1.8,5.7,6.2,8.8,4.2l0.8-12.5l0.9,12.5c3.1,2,4.3-2.5,8.8-4.2c3-1,6.3-1.1,9.3-0.2c-1.5-1-3.2-1.7-5-2
		c-2.6-0.5-6.4,1.1-6.4,1.1s0.5-3.6,2.2-5.4C48.6,13.3,52,12.9,53,9.7"/>
	<path class="st2" d="M33.1,44.3c0,0,0.8-2.2,1.5-1.5c1,0.9,1.9,1.9,2.5,3.1v2.6l-1.7,0.1c-1.4,0.2-2.8,0.5-4.2,0.8
		c-4.4-11-2-19.4-0.8-22.3c-4.4,1-5.1-4.4-5.1-4.4c0.7,0,1.3,0.1,1.9,0.5c1.3,0.7,2.5,1.5,3.7,2.4l0,0c0.3,0.2,0.6,0.5,0.9,0.7
		c3,2.5,5.4,2,5.4,2v10.8C37.2,39.1,28.5,38.4,33.1,44.3"/>
	<path class="st2" d="M41.3,44.3c5.6-5.7-3.5-5.3-4.1-5.2C38.2,39.1,45.2,39.2,41.3,44.3"/>
	<path class="st2" d="M45,27.2c5,13.5-1.3,22.2-1.4,22.2c4-10.3,1.4-18.9-0.3-22.1c-0.7,0-1.3,0-2,0c0.8-0.5,1.5-1,2.2-1.6l0.2-0.2
		c1.1-1,2.4-1.8,3.7-2.4l0,0c0.6-0.2,1.3-0.4,1.9-0.5C49.4,22.7,49,27.2,45,27.2"/>
	<path class="st1" d="M21.3,9.4c0,0-3.8-4.8-6.9-1.6c0,0,2.5-0.1,3.7,1.4c0,0-3.2-1.4-4.6,1.4c0,0,1.6-0.8,2.4,0.1
		c0,0-2.1,1.7-2,3.4C14,14.1,17.9,10.2,21.3,9.4"/>
	<path class="st4" d="M30.9,25.6c-0.5-0.1-1.3,0.4-1.7,1.2c-1.5-0.4-2-2-1.9-3.6l0,0C28.5,23.8,29.7,24.6,30.9,25.6"/>
	<path class="st4" d="M45.6,26.8c-0.5-0.9-1.3-1.4-1.8-1.2c1.1-1,2.4-1.8,3.7-2.4l0,0C47.6,24.7,47.1,26.3,45.6,26.8"/>
</g>
</svg>
